<svg width="130" height="35" viewBox="0 0 130 35" fill="none" xmlns="http://www.w3.org/2000/svg">
<g clip-path="url(#clip0_91_44)">
<path d="M9.012 9.90748C9.012 8.76431 9.71696 7.7164 10.7839 7.37345C11.9652 6.99239 13.2036 7.44966 13.8324 8.49757L22.9396 23.5303V9.85032C22.9396 8.42136 24.1019 7.25913 25.5308 7.25913H31.6849C28.5221 2.87698 23.3398 0 17.4905 0C7.83073 0 0 7.83072 0 17.4905C0 20.0626 0.552533 22.5014 1.56233 24.7115H9.012V9.90748Z" fill="#05BFDB"/>
<path d="M25.9881 25.0925C25.9881 26.2357 25.2831 27.2836 24.2162 27.6456C23.0349 28.0267 21.7964 27.5694 21.1677 26.5405L12.0604 11.565V25.1687C12.0604 26.5977 10.8982 27.7599 9.46925 27.7599H3.33423C6.51606 32.1421 11.6794 35 17.5096 35C27.1694 35 35.0001 27.1693 35.0001 17.5095C35.0001 14.9564 34.4475 12.5176 33.4568 10.3266H25.9881V25.0925Z" fill="#05BFDB"/>
<path d="M25.5308 7.2781C24.1018 7.2781 22.9396 8.44033 22.9396 9.86929V23.5111L13.8323 8.47843C13.2036 7.43053 11.9651 6.97326 10.7838 7.35431C9.69783 7.71632 9.01192 8.76423 9.01192 9.88834V24.6924H1.56226C2.05763 25.7784 2.64827 26.7882 3.33417 27.7409H9.46919C10.8982 27.7409 12.0604 26.5786 12.0604 25.1497V11.565L21.1677 26.5215C21.7964 27.5694 23.0348 28.0267 24.2161 27.6265C25.3021 27.2645 25.988 26.2166 25.988 25.0735V10.3266H33.4567C32.9614 9.24055 32.3707 8.23075 31.6848 7.2781H25.5308Z" fill="white"/>
<path d="M53.4116 4.76674V15H51.5429L47.0908 8.55925H47.0158V15H44.8522V4.76674H46.751L51.1681 11.2025H51.258V4.76674H53.4116ZM61.5201 4.76674H63.6837V11.4124C63.6837 12.1586 63.5054 12.8115 63.149 13.3711C62.7959 13.9307 62.3012 14.3671 61.665 14.6802C61.0287 14.99 60.2875 15.1449 59.4414 15.1449C58.592 15.1449 57.8491 14.99 57.2129 14.6802C56.5766 14.3671 56.082 13.9307 55.7289 13.3711C55.3758 12.8115 55.1992 12.1586 55.1992 11.4124V4.76674H57.3628V11.2275C57.3628 11.6172 57.4477 11.9637 57.6176 12.2668C57.7908 12.57 58.034 12.8081 58.3472 12.9814C58.6603 13.1546 59.025 13.2412 59.4414 13.2412C59.8612 13.2412 60.2259 13.1546 60.5357 12.9814C60.8488 12.8081 61.0904 12.57 61.2602 12.2668C61.4335 11.9637 61.5201 11.6172 61.5201 11.2275V4.76674ZM65.4637 15V4.76674H67.6273V9.27878H67.7622L71.4448 4.76674H74.0381L70.2406 9.34873L74.0831 15H71.4948L68.6916 10.7928L67.6273 12.0919V15H65.4637ZM74.7751 6.55057V4.76674H83.1796V6.55057H80.0467V15H77.9081V6.55057H74.7751ZM85.0771 15H82.7587L86.2913 4.76674H89.0795L92.6072 15H90.2887L87.7254 7.10521H87.6454L85.0771 15ZM84.9322 10.9777H90.4086V12.6666H84.9322V10.9777ZM50.4036 22.7098C50.3636 22.3067 50.1921 21.9936 49.8889 21.7704C49.5858 21.5472 49.1744 21.4356 48.6548 21.4356C48.3017 21.4356 48.0035 21.4856 47.7603 21.5855C47.5172 21.6821 47.3306 21.8171 47.2007 21.9903C47.0741 22.1635 47.0108 22.36 47.0108 22.5799C47.0042 22.7631 47.0425 22.923 47.1258 23.0596C47.2124 23.1962 47.3306 23.3144 47.4805 23.4143C47.6304 23.511 47.8036 23.5959 48.0002 23.6692C48.1967 23.7391 48.4066 23.7991 48.6298 23.8491L49.5492 24.0689C49.9955 24.1689 50.4053 24.3021 50.7784 24.4687C51.1515 24.6352 51.4746 24.8401 51.7477 25.0833C52.0209 25.3264 52.2324 25.6129 52.3823 25.9427C52.5355 26.2725 52.6138 26.6506 52.6172 27.0769C52.6138 27.7032 52.4539 28.2462 52.1375 28.7059C51.8243 29.1622 51.3713 29.517 50.7784 29.7702C50.1887 30.02 49.4775 30.1449 48.6448 30.1449C47.8186 30.1449 47.0991 30.0184 46.4862 29.7652C45.8766 29.512 45.4002 29.1373 45.0571 28.6409C44.7173 28.1412 44.5391 27.5233 44.5225 26.7871H46.6161C46.6394 27.1302 46.7377 27.4167 46.9109 27.6466C47.0874 27.8731 47.3223 28.0446 47.6154 28.1612C47.9119 28.2745 48.2467 28.3311 48.6198 28.3311C48.9862 28.3311 49.3043 28.2778 49.5742 28.1712C49.8473 28.0646 50.0588 27.9164 50.2087 27.7265C50.3586 27.5366 50.4336 27.3185 50.4336 27.0719C50.4336 26.8421 50.3653 26.6489 50.2287 26.4923C50.0955 26.3358 49.8989 26.2025 49.6391 26.0926C49.3826 25.9827 49.0678 25.8827 48.6947 25.7928L47.5805 25.513C46.7177 25.3031 46.0365 24.975 45.5368 24.5286C45.0371 24.0822 44.789 23.481 44.7923 22.7248C44.789 22.1052 44.9538 21.5639 45.287 21.1009C45.6234 20.6378 46.0848 20.2764 46.6711 20.0166C47.2573 19.7567 47.9236 19.6268 48.6697 19.6268C49.4292 19.6268 50.0921 19.7567 50.6584 20.0166C51.2281 20.2764 51.6711 20.6378 51.9876 21.1009C52.304 21.5639 52.4673 22.1002 52.4772 22.7098H50.4036ZM63.4763 24.8834C63.4763 25.9993 63.2648 26.9487 62.8417 27.7315C62.422 28.5143 61.849 29.1123 61.1228 29.5253C60.4 29.9351 59.5872 30.1399 58.6844 30.1399C57.775 30.1399 56.9589 29.9334 56.236 29.5203C55.5132 29.1073 54.9419 28.5093 54.5222 27.7265C54.1024 26.9437 53.8926 25.996 53.8926 24.8834C53.8926 23.7674 54.1024 22.8181 54.5222 22.0353C54.9419 21.2524 55.5132 20.6562 56.236 20.2464C56.9589 19.8334 57.775 19.6268 58.6844 19.6268C59.5872 19.6268 60.4 19.8334 61.1228 20.2464C61.849 20.6562 62.422 21.2524 62.8417 22.0353C63.2648 22.8181 63.4763 23.7674 63.4763 24.8834ZM61.2827 24.8834C61.2827 24.1605 61.1745 23.5509 60.9579 23.0546C60.7447 22.5582 60.4433 22.1818 60.0535 21.9253C59.6638 21.6688 59.2074 21.5406 58.6844 21.5406C58.1614 21.5406 57.7051 21.6688 57.3153 21.9253C56.9256 22.1818 56.6224 22.5582 56.4059 23.0546C56.1927 23.5509 56.0861 24.1605 56.0861 24.8834C56.0861 25.6062 56.1927 26.2158 56.4059 26.7122C56.6224 27.2085 56.9256 27.5849 57.3153 27.8414C57.7051 28.0979 58.1614 28.2262 58.6844 28.2262C59.2074 28.2262 59.6638 28.0979 60.0535 27.8414C60.4433 27.5849 60.7447 27.2085 60.9579 26.7122C61.1745 26.2158 61.2827 25.6062 61.2827 24.8834ZM65.079 30V19.7667H67.2426V28.2162H71.6297V30H65.079ZM79.3834 19.7667H81.5469V26.4124C81.5469 27.1586 81.3687 27.8115 81.0123 28.3711C80.6592 28.9307 80.1645 29.3671 79.5283 29.6802C78.892 29.99 78.1508 30.1449 77.3047 30.1449C76.4553 30.1449 75.7124 29.99 75.0762 29.6802C74.4399 29.3671 73.9453 28.9307 73.5922 28.3711C73.2391 27.8115 73.0625 27.1586 73.0625 26.4124V19.7667H75.2261V26.2275C75.2261 26.6172 75.311 26.9637 75.4809 27.2668C75.6541 27.57 75.8973 27.8081 76.2104 27.9814C76.5236 28.1546 76.8883 28.2412 77.3047 28.2412C77.7244 28.2412 78.0892 28.1546 78.399 27.9814C78.7121 27.8081 78.9536 27.57 79.1235 27.2668C79.2968 26.9637 79.3834 26.6172 79.3834 26.2275V19.7667ZM82.9373 21.5506V19.7667H91.3418V21.5506H88.2088V30H86.0702V21.5506H82.9373ZM94.8894 19.7667V30H92.7259V19.7667H94.8894ZM106.073 24.8834C106.073 25.9993 105.862 26.9487 105.439 27.7315C105.019 28.5143 104.446 29.1123 103.72 29.5253C102.997 29.9351 102.184 30.1399 101.282 30.1399C100.372 30.1399 99.556 29.9334 98.8331 29.5203C98.1103 29.1073 97.539 28.5093 97.1192 27.7265C96.6995 26.9437 96.4896 25.996 96.4896 24.8834C96.4896 23.7674 96.6995 22.8181 97.1192 22.0353C97.539 21.2524 98.1103 20.6562 98.8331 20.2464C99.556 19.8334 100.372 19.6268 101.282 19.6268C102.184 19.6268 102.997 19.8334 103.72 20.2464C104.446 20.6562 105.019 21.2524 105.439 22.0353C105.862 22.8181 106.073 23.7674 106.073 24.8834ZM103.88 24.8834C103.88 24.1605 103.772 23.5509 103.555 23.0546C103.342 22.5582 103.04 22.1818 102.651 21.9253C102.261 21.6688 101.804 21.5406 101.282 21.5406C100.759 21.5406 100.302 21.6688 99.9124 21.9253C99.5227 22.1818 99.2195 22.5582 99.003 23.0546C98.7898 23.5509 98.6832 24.1605 98.6832 24.8834C98.6832 25.6062 98.7898 26.2158 99.003 26.7122C99.2195 27.2085 99.5227 27.5849 99.9124 27.8414C100.302 28.0979 100.759 28.2262 101.282 28.2262C101.804 28.2262 102.261 28.0979 102.651 27.8414C103.04 27.5849 103.342 27.2085 103.555 26.7122C103.772 26.2158 103.88 25.6062 103.88 24.8834ZM116.235 19.7667V30H114.367L109.915 23.5593H109.84V30H107.676V19.7667H109.575L113.992 26.2025H114.082V19.7667H116.235ZM123.574 22.7098C123.534 22.3067 123.363 21.9936 123.06 21.7704C122.757 21.5472 122.345 21.4356 121.826 21.4356C121.472 21.4356 121.174 21.4856 120.931 21.5855C120.688 21.6821 120.501 21.8171 120.371 21.9903C120.245 22.1635 120.182 22.36 120.182 22.5799C120.175 22.7631 120.213 22.923 120.297 23.0596C120.383 23.1962 120.501 23.3144 120.651 23.4143C120.801 23.511 120.974 23.5959 121.171 23.6692C121.368 23.7391 121.577 23.7991 121.801 23.8491L122.72 24.0689C123.166 24.1689 123.576 24.3021 123.949 24.4687C124.322 24.6352 124.645 24.8401 124.919 25.0833C125.192 25.3264 125.403 25.6129 125.553 25.9427C125.706 26.2725 125.785 26.6506 125.788 27.0769C125.785 27.7032 125.625 28.2462 125.308 28.7059C124.995 29.1622 124.542 29.517 123.949 29.7702C123.36 30.02 122.648 30.1449 121.816 30.1449C120.989 30.1449 120.27 30.0184 119.657 29.7652C119.047 29.512 118.571 29.1373 118.228 28.6409C117.888 28.1412 117.71 27.5233 117.693 26.7871H119.787C119.81 27.1302 119.908 27.4167 120.082 27.6466C120.258 27.8731 120.493 28.0446 120.786 28.1612C121.083 28.2745 121.417 28.3311 121.791 28.3311C122.157 28.3311 122.475 28.2778 122.745 28.1712C123.018 28.0646 123.23 27.9164 123.38 27.7265C123.529 27.5366 123.604 27.3185 123.604 27.0719C123.604 26.8421 123.536 26.6489 123.4 26.4923C123.266 26.3358 123.07 26.2025 122.81 26.0926C122.553 25.9827 122.239 25.8827 121.866 25.7928L120.751 25.513C119.888 25.3031 119.207 24.975 118.708 24.5286C118.208 24.0822 117.96 23.481 117.963 22.7248C117.96 22.1052 118.125 21.5639 118.458 21.1009C118.794 20.6378 119.256 20.2764 119.842 20.0166C120.428 19.7567 121.094 19.6268 121.841 19.6268C122.6 19.6268 123.263 19.7567 123.829 20.0166C124.399 20.2764 124.842 20.6378 125.158 21.1009C125.475 21.5639 125.638 22.1002 125.648 22.7098H123.574Z" fill="white"/>
</g>
<defs>
<clipPath id="clip0_91_44">
<rect width="130" height="35" fill="white"/>
</clipPath>
</defs>
</svg>
